<?xml version="1.0" standalone="no"?>
<!DOCTYPE svg PUBLIC "-//W3C//DTD SVG 20010904//EN"
 "http://www.w3.org/TR/2001/REC-SVG-20010904/DTD/svg10.dtd">
<svg version="1.0" xmlns="http://www.w3.org/2000/svg"
 width="1600.000000pt" height="1600.000000pt" viewBox="0 0 1600.000000 1600.000000"
 preserveAspectRatio="xMidYMid meet">
<metadata>
Created by potrace 1.11, written by Peter Selinger 2001-2013
</metadata>
<g transform="translate(0.000000,1600.000000) scale(0.100000,-0.100000)"
fill="#000000" stroke="none">
<path d="M3959 11336 c-2 -2 -56 -7 -119 -10 -63 -4 -128 -9 -145 -12 -16 -3
-46 -7 -65 -9 -68 -7 -238 -38 -329 -59 -478 -115 -908 -322 -1286 -619 -237
-187 -441 -394 -621 -632 -68 -89 -198 -286 -235 -355 -13 -25 -26 -47 -29
-50 -9 -8 -147 -302 -165 -350 -10 -25 -23 -58 -30 -75 -29 -68 -113 -344
-129 -425 -29 -147 -45 -233 -50 -275 -4 -27 -9 -66 -12 -85 -24 -171 -24
-630 1 -758 1 -9 6 -42 9 -73 4 -31 9 -67 11 -80 3 -13 7 -41 11 -64 3 -22 15
-78 26 -125 11 -47 22 -94 23 -105 6 -33 62 -213 99 -315 123 -341 320 -688
551 -969 137 -165 365 -388 541 -526 365 -287 882 -530 1319 -620 161 -33 274
-50 470 -70 59 -6 427 -7 470 -1 17 2 62 7 100 10 39 4 95 11 125 16 30 5 71
12 90 15 261 41 698 178 960 302 385 181 693 363 1045 616 96 69 291 219 350
269 11 9 70 58 130 108 120 100 218 187 335 294 92 85 461 454 552 553 l66 71
119 -126 c155 -165 469 -473 580 -571 21 -18 70 -61 108 -96 39 -34 86 -75
105 -91 19 -16 37 -31 40 -34 34 -39 387 -311 555 -429 72 -50 135 -95 142
-101 7 -5 15 -10 18 -10 3 0 32 -17 63 -39 31 -21 75 -49 97 -63 22 -13 59
-37 83 -52 47 -29 56 -35 217 -123 234 -129 534 -262 750 -333 55 -18 107 -36
116 -40 19 -10 331 -87 379 -94 19 -3 73 -12 120 -20 47 -8 119 -18 160 -21
41 -4 89 -9 105 -11 40 -6 386 -5 450 1 157 14 174 16 300 36 116 18 242 44
315 65 279 81 436 141 647 248 131 65 316 174 388 227 22 17 63 47 91 67 214
156 446 378 629 603 66 81 190 260 248 359 37 63 72 122 77 130 24 40 107 216
145 305 74 176 164 463 189 610 3 17 8 41 11 55 12 65 15 78 20 120 4 25 8 56
10 70 4 27 13 115 21 195 5 64 6 417 0 470 -2 22 -7 72 -11 110 -3 39 -8 77
-10 85 -2 8 -7 40 -10 70 -3 30 -8 62 -10 70 -2 8 -7 31 -10 50 -22 138 -120
482 -170 595 -8 17 -26 59 -41 95 -51 124 -118 252 -247 473 -10 17 -48 72
-83 121 -35 50 -70 99 -77 110 -6 10 -17 24 -23 30 -6 6 -33 39 -60 71 -114
141 -300 327 -454 456 -308 256 -689 466 -1075 594 -112 37 -301 88 -365 99
-19 3 -46 8 -60 11 -60 12 -78 15 -120 20 -25 4 -56 8 -70 10 -162 24 -492 35
-640 21 -94 -9 -151 -16 -185 -21 -16 -2 -50 -7 -75 -10 -143 -21 -409 -88
-577 -146 -113 -39 -300 -113 -338 -133 -16 -9 -34 -16 -39 -16 -10 0 -289
-139 -391 -195 -240 -131 -549 -331 -785 -509 -343 -257 -636 -508 -974 -836
-170 -166 -139 -134 -283 -283 -68 -70 -123 -123 -123 -118 0 13 -342 365
-492 506 -158 148 -305 281 -378 341 -19 16 -44 37 -55 47 -11 10 -51 44 -90
75 -38 31 -72 59 -75 62 -3 3 -34 28 -70 55 -36 28 -67 53 -70 56 -11 13 -282
211 -385 281 -237 162 -532 334 -765 446 -141 68 -273 126 -310 137 -14 4 -29
11 -35 15 -5 3 -39 17 -75 29 -36 12 -72 25 -80 28 -8 4 -17 7 -20 8 -3 1 -57
17 -120 37 -184 58 -354 97 -545 123 -11 2 -47 6 -80 9 -33 4 -80 9 -105 12
-59 7 -271 7 -278 0 -3 -3 -10 -1 -17 4 -7 5 -14 8 -16 6z m371 -1360 c466
-84 965 -327 1524 -743 90 -67 183 -140 196 -153 3 -3 23 -18 45 -35 22 -16
42 -32 45 -35 3 -3 32 -28 65 -55 33 -28 65 -54 71 -60 6 -5 29 -25 50 -44
156 -137 271 -247 489 -465 138 -138 262 -266 275 -284 14 -19 30 -39 35 -46
6 -6 20 -25 31 -42 l21 -30 -66 -74 c-84 -95 -563 -577 -645 -649 -33 -30 -81
-73 -106 -95 -87 -80 -253 -220 -350 -298 -135 -107 -485 -352 -575 -402 -16
-9 -39 -22 -50 -29 -156 -98 -434 -232 -635 -305 -100 -37 -336 -99 -400 -107
-25 -3 -72 -9 -105 -14 -76 -11 -369 -7 -455 7 -36 6 -82 13 -104 17 -21 3
-41 7 -45 9 -3 2 -23 7 -43 10 -98 15 -291 87 -453 168 -383 191 -727 548
-901 935 -19 43 -39 87 -45 98 -20 43 -80 241 -95 313 -21 101 -21 99 -28 157
-4 28 -9 64 -11 80 -6 45 -7 345 -1 385 3 19 8 55 11 80 24 200 110 465 214
660 32 61 157 259 171 270 3 3 21 25 40 50 61 81 223 240 325 319 168 131 322
220 514 295 83 33 259 86 301 91 8 1 29 5 45 8 56 13 80 17 145 23 36 4 66 8
68 9 12 10 353 -5 432 -19z m7920 9 c243 -40 342 -67 516 -140 242 -102 434
-228 628 -414 80 -77 236 -262 236 -280 0 -5 4 -11 8 -13 17 -6 101 -146 155
-258 109 -226 171 -437 195 -665 9 -88 9 -349 0 -435 -32 -294 -150 -621 -316
-875 -145 -221 -364 -437 -597 -590 -56 -37 -265 -146 -330 -172 -107 -43
-312 -99 -433 -118 -23 -4 -54 -9 -70 -11 -74 -12 -366 -11 -462 2 -477 62
-1033 324 -1610 758 -434 328 -950 809 -1166 1088 -63 81 -114 150 -114 153 0
26 543 574 749 755 34 30 75 66 90 80 70 63 105 93 226 190 72 58 132 107 135
110 3 4 71 54 152 113 409 298 766 496 1111 617 93 32 253 76 312 86 22 3 76
12 120 19 79 12 390 12 465 0z"/>
</g>
</svg>
